<svg width="24" height="24" viewBox="0 0 24 24" fill="none" xmlns="http://www.w3.org/2000/svg">
<path d="M22.2033 17.4998L18.2033 13.4998V15.2646L6.73527 3.79657H15.9283C16.5579 3.79657 17.0945 4.01832 17.538 4.46182C17.9815 4.90532 18.2033 5.44191 18.2033 6.07157V10.4998L22.2033 6.49982V17.4998ZM20.6398 23.4693L0.530518 3.34807L1.99627 1.88232L22.1175 22.0036L20.6398 23.4693ZM3.91027 3.79657L18.1913 18.0776C18.1594 18.6714 17.9258 19.1741 17.4903 19.5856C17.0548 19.9972 16.5341 20.2031 15.9283 20.2031H4.07177C3.4421 20.2031 2.90552 19.9813 2.46202 19.5378C2.01852 19.0943 1.79677 18.5577 1.79677 17.9281V6.07157C1.79677 5.46974 2.0026 4.95007 2.41427 4.51257C2.82577 4.07507 3.32843 3.84041 3.92227 3.80857L3.91027 3.79657Z" fill="#F50D0D"/>
</svg>
