<svg width="32" height="32" viewBox="0 0 32 32" fill="none" xmlns="http://www.w3.org/2000/svg">
<path d="M21.4666 17.7334L19.5333 15.8001C19.7333 14.7556 19.4333 13.7778 18.6333 12.8667C17.8333 11.9556 16.7999 11.6001 15.5333 11.8001L13.5999 9.86673C13.9777 9.68895 14.361 9.55562 14.7499 9.46673C15.1388 9.37784 15.5555 9.3334 15.9999 9.3334C17.6666 9.3334 19.0833 9.91673 20.2499 11.0834C21.4166 12.2501 21.9999 13.6667 21.9999 15.3334C21.9999 15.7778 21.9555 16.1945 21.8666 16.5834C21.7777 16.9723 21.6444 17.3556 21.4666 17.7334ZM25.7333 21.9334L23.7999 20.0667C24.6444 19.4223 25.3944 18.7167 26.0499 17.9501C26.7055 17.1834 27.2666 16.3112 27.7333 15.3334C26.6221 13.089 25.0277 11.3056 22.9499 9.9834C20.8721 8.66118 18.5555 8.00007 15.9999 8.00007C15.3555 8.00007 14.7221 8.04451 14.0999 8.1334C13.4777 8.22229 12.8666 8.35562 12.2666 8.5334L10.1999 6.46673C11.111 6.08895 12.0444 5.80562 12.9999 5.61673C13.9555 5.42784 14.9555 5.3334 15.9999 5.3334C19.3555 5.3334 22.3444 6.26118 24.9666 8.11673C27.5888 9.97229 29.4888 12.3778 30.6666 15.3334C30.1555 16.6445 29.4833 17.8612 28.6499 18.9834C27.8166 20.1056 26.8444 21.089 25.7333 21.9334ZM26.3999 30.1334L20.7999 24.6001C20.0221 24.8445 19.2388 25.0278 18.4499 25.1501C17.661 25.2723 16.8444 25.3334 15.9999 25.3334C12.6444 25.3334 9.65547 24.4056 7.03325 22.5501C4.41103 20.6945 2.51103 18.289 1.33325 15.3334C1.79992 14.1556 2.38881 13.0612 3.09992 12.0501C3.81103 11.039 4.62214 10.1334 5.53325 9.3334L1.86659 5.60007L3.73325 3.7334L28.2666 28.2667L26.3999 30.1334ZM7.39992 11.2001C6.75547 11.7778 6.16659 12.4112 5.63325 13.1001C5.09992 13.789 4.64436 14.5334 4.26659 15.3334C5.3777 17.5778 6.97214 19.3612 9.04992 20.6834C11.1277 22.0056 13.4444 22.6667 15.9999 22.6667C16.4444 22.6667 16.8777 22.639 17.2999 22.5834C17.7221 22.5278 18.1555 22.4667 18.5999 22.4001L17.3999 21.1334C17.1555 21.2001 16.9221 21.2501 16.6999 21.2834C16.4777 21.3167 16.2444 21.3334 15.9999 21.3334C14.3333 21.3334 12.9166 20.7501 11.7499 19.5834C10.5833 18.4167 9.99992 17.0001 9.99992 15.3334C9.99992 15.089 10.0166 14.8556 10.0499 14.6334C10.0833 14.4112 10.1333 14.1778 10.1999 13.9334L7.39992 11.2001Z" fill="#A1A1AA"/>
</svg>
