<svg width="32" height="32" viewBox="0 0 32 32" fill="none" xmlns="http://www.w3.org/2000/svg">
<path d="M15.9999 21.3335C17.6666 21.3335 19.0833 20.7502 20.2499 19.5835C21.4166 18.4168 21.9999 17.0002 21.9999 15.3335C21.9999 13.6668 21.4166 12.2502 20.2499 11.0835C19.0833 9.91683 17.6666 9.3335 15.9999 9.3335C14.3333 9.3335 12.9166 9.91683 11.7499 11.0835C10.5833 12.2502 9.99992 13.6668 9.99992 15.3335C9.99992 17.0002 10.5833 18.4168 11.7499 19.5835C12.9166 20.7502 14.3333 21.3335 15.9999 21.3335ZM15.9999 18.9335C14.9999 18.9335 14.1499 18.5835 13.4499 17.8835C12.7499 17.1835 12.3999 16.3335 12.3999 15.3335C12.3999 14.3335 12.7499 13.4835 13.4499 12.7835C14.1499 12.0835 14.9999 11.7335 15.9999 11.7335C16.9999 11.7335 17.8499 12.0835 18.5499 12.7835C19.2499 13.4835 19.5999 14.3335 19.5999 15.3335C19.5999 16.3335 19.2499 17.1835 18.5499 17.8835C17.8499 18.5835 16.9999 18.9335 15.9999 18.9335ZM15.9999 25.3335C12.7555 25.3335 9.79992 24.4279 7.13325 22.6168C4.46659 20.8057 2.53325 18.3779 1.33325 15.3335C2.53325 12.2891 4.46659 9.86127 7.13325 8.05016C9.79992 6.23905 12.7555 5.3335 15.9999 5.3335C19.2444 5.3335 22.1999 6.23905 24.8666 8.05016C27.5333 9.86127 29.4666 12.2891 30.6666 15.3335C29.4666 18.3779 27.5333 20.8057 24.8666 22.6168C22.1999 24.4279 19.2444 25.3335 15.9999 25.3335ZM15.9999 22.6668C18.511 22.6668 20.8166 22.0057 22.9166 20.6835C25.0166 19.3613 26.6221 17.5779 27.7333 15.3335C26.6221 13.0891 25.0166 11.3057 22.9166 9.9835C20.8166 8.66127 18.511 8.00016 15.9999 8.00016C13.4888 8.00016 11.1833 8.66127 9.08325 9.9835C6.98325 11.3057 5.3777 13.0891 4.26659 15.3335C5.3777 17.5779 6.98325 19.3613 9.08325 20.6835C11.1833 22.0057 13.4888 22.6668 15.9999 22.6668Z" fill="#A1A1AA"/>
</svg>
